<svg width="22" height="22" viewBox="0 0 22 22" fill="none" xmlns="http://www.w3.org/2000/svg">
<g clip-path="url(#clip0_1714_9932)">
<path d="M18.496 4.14328C17.0793 3.4947 15.5838 3.03457 14.0475 2.77466C13.8373 3.15046 13.6471 3.53711 13.4777 3.93299C11.8413 3.6864 10.1772 3.6864 8.54081 3.93299C8.37132 3.53715 8.18111 3.1505 7.97097 2.77466C6.43375 3.03677 4.93721 3.49799 3.51913 4.14668C0.703864 8.31191 -0.0593094 12.3737 0.322277 16.3778C1.97097 17.5959 3.81632 18.5223 5.77812 19.1168C6.21986 18.5226 6.61075 17.8923 6.94663 17.2326C6.30867 16.9943 5.69293 16.7003 5.10653 16.3541C5.26086 16.2421 5.4118 16.1268 5.55765 16.0149C7.26393 16.8173 9.12625 17.2333 11.0118 17.2333C12.8973 17.2333 14.7597 16.8173 16.4659 16.0149C16.6135 16.1353 16.7644 16.2506 16.9171 16.3541C16.3295 16.7009 15.7127 16.9954 15.0736 17.2343C15.409 17.8937 15.8 18.5235 16.2421 19.1168C18.2056 18.5247 20.0523 17.5988 21.7013 16.3795C22.149 11.736 20.9364 7.71155 18.496 4.14328ZM7.42997 13.9153C6.36661 13.9153 5.48812 12.9503 5.48812 11.7632C5.48812 10.576 6.33609 9.60252 7.42658 9.60252C8.51707 9.60252 9.38878 10.576 9.37013 11.7632C9.35147 12.9503 8.51368 13.9153 7.42997 13.9153ZM14.5936 13.9153C13.5286 13.9153 12.6535 12.9503 12.6535 11.7632C12.6535 10.576 13.5014 9.60252 14.5936 9.60252C15.6858 9.60252 16.5507 10.576 16.5321 11.7632C16.5134 12.9503 15.6773 13.9153 14.5936 13.9153Z" fill="white"/>
</g>
<defs>
<clipPath id="clip0_1714_9932">
<rect width="21.5622" height="16.3421" fill="white" transform="translate(0.230713 2.77466)"/>
</clipPath>
</defs>
</svg>
