<svg width="22" height="22" viewBox="0 0 22 22" fill="none" xmlns="http://www.w3.org/2000/svg">
<path fill-rule="evenodd" clip-rule="evenodd" d="M1.49314 9.74888C7.32354 7.20867 11.2114 5.534 13.1567 4.72489C18.7109 2.4147 19.865 2.01339 20.6173 2.00014C20.7827 1.99723 21.1526 2.03823 21.3923 2.23267C21.5946 2.39685 21.6503 2.61863 21.6769 2.77429C21.7035 2.92995 21.7367 3.28455 21.7103 3.56163C21.4094 6.7241 20.107 14.3986 19.4444 17.9406C19.1641 19.4394 18.6121 19.9419 18.0776 19.9911C16.9162 20.098 16.0342 19.2235 14.9093 18.4861C13.1491 17.3323 12.1546 16.614 10.446 15.488C8.47138 14.1868 9.75144 13.4716 10.8768 12.3027C11.1713 11.9969 16.2886 7.34226 16.3876 6.92001C16.4 6.86721 16.4115 6.67036 16.2946 6.56642C16.1776 6.46248 16.005 6.49802 15.8805 6.52629C15.704 6.56636 12.8919 8.42501 7.44438 12.1022C6.64619 12.6503 5.92322 12.9174 5.27546 12.9034C4.56136 12.888 3.18771 12.4996 2.16654 12.1677C0.914043 11.7606 -0.0814206 11.5453 0.00526187 10.8539C0.0504115 10.4937 0.54637 10.1254 1.49314 9.74888Z" fill="white"/>
</svg>
