<svg width="1519" height="721" viewBox="0 0 1519 721" fill="none" xmlns="http://www.w3.org/2000/svg">
<line x1="0.5" y1="1" x2="0.5" y2="721" stroke="#F1F3F5" stroke-opacity="0.2"/>
<line x1="120.5" y1="1" x2="120.5" y2="721" stroke="#F1F3F5" stroke-opacity="0.2"/>
<line x1="240.5" y1="1" x2="240.5" y2="721" stroke="#F1F3F5" stroke-opacity="0.2"/>
<line x1="360.5" y1="1" x2="360.5" y2="721" stroke="#F1F3F5" stroke-opacity="0.2"/>
<line x1="480.5" y1="1" x2="480.5" y2="721" stroke="#F1F3F5" stroke-opacity="0.2"/>
<line x1="600.5" y1="1" x2="600.5" y2="721" stroke="#F1F3F5" stroke-opacity="0.2"/>
<line x1="720.5" y1="1" x2="720.5" y2="721" stroke="#F1F3F5" stroke-opacity="0.2"/>
<line x1="840.5" y1="1" x2="840.5" y2="721" stroke="#F1F3F5" stroke-opacity="0.2"/>
<line x1="960.5" y1="1" x2="960.5" y2="721" stroke="#F1F3F5" stroke-opacity="0.2"/>
<line x1="1080.5" y1="1" x2="1080.5" y2="721" stroke="#F1F3F5" stroke-opacity="0.2"/>
<line x1="1200.5" y1="1" x2="1200.5" y2="721" stroke="#F1F3F5" stroke-opacity="0.2"/>
<line x1="1320.5" y1="1" x2="1320.5" y2="721" stroke="#F1F3F5" stroke-opacity="0.2"/>
<line x1="1440.5" y1="1" x2="1440.5" y2="721" stroke="#F1F3F5" stroke-opacity="0.2"/>
<line x1="4.37114e-08" y1="0.5" x2="1519" y2="0.500133" stroke="#F1F3F5" stroke-opacity="0.2"/>
<line x1="4.72083e-08" y1="120.5" x2="1519" y2="120.5" stroke="#F1F3F5" stroke-opacity="0.2"/>
<line x1="4.72083e-08" y1="240.5" x2="1519" y2="240.5" stroke="#F1F3F5" stroke-opacity="0.2"/>
<line x1="4.72083e-08" y1="360.5" x2="1519" y2="360.5" stroke="#F1F3F5" stroke-opacity="0.2"/>
<line x1="4.72083e-08" y1="480.5" x2="1519" y2="480.501" stroke="#F1F3F5" stroke-opacity="0.2"/>
<line x1="4.72083e-08" y1="600.501" x2="1519" y2="600.501" stroke="#F1F3F5" stroke-opacity="0.2"/>
<line x1="4.72083e-08" y1="720.501" x2="1519" y2="720.501" stroke="#F1F3F5" stroke-opacity="0.2"/>
<rect x="241" y="361" width="119" height="119" fill="white" fill-opacity="0.05"/>
<rect x="121" y="361" width="119" height="119" fill="white" fill-opacity="0.05"/>
<rect x="361" y="601" width="119" height="119" fill="white" fill-opacity="0.05"/>
<rect x="121" y="1" width="119" height="119" fill="white" fill-opacity="0.05"/>
<rect x="481" y="121" width="119" height="119" fill="white" fill-opacity="0.05"/>
<rect x="1201" y="121" width="119" height="119" fill="white" fill-opacity="0.05"/>
<rect x="1321" y="241" width="119" height="119" fill="white" fill-opacity="0.05"/>
<rect x="1081" y="481" width="119" height="119" fill="white" fill-opacity="0.05"/>
</svg>
