<?xml version="1.0" encoding="UTF-8" standalone="no"?>
<!DOCTYPE svg PUBLIC "-//W3C//DTD SVG 1.1//EN" "http://www.w3.org/Graphics/SVG/1.1/DTD/svg11.dtd">
<svg width="100%" height="100%" viewBox="0 0 704 226" version="1.1" xmlns="http://www.w3.org/2000/svg" xmlns:xlink="http://www.w3.org/1999/xlink" xml:space="preserve" xmlns:serif="http://www.serif.com/" style="fill-rule:evenodd;clip-rule:evenodd;stroke-linejoin:round;stroke-miterlimit:2;">
    <g>
        <path d="M129.1,70.2C128.3,69.4 127.3,69.4 126.4,70.2L83.2,113.4C82.4,114.2 82.4,115.2 83.2,116.1L126.4,159.3C127.2,160.1 128.2,160.1 129.1,159.3L172.3,116.1C173.1,115.3 173.1,114.3 172.3,113.4L129.1,70.2Z" style="fill-rule:nonzero;"/>
        <path d="M148.6,20.8C137.1,9.3 118.5,9.3 107,20.8L33.9,93.9C22.4,105.4 22.4,124 33.9,135.5L107,208.6C118.5,220.1 137.1,220.1 148.6,208.6L221.5,135.3C233,123.8 233,105.2 221.5,93.7L148.6,20.8ZM202.6,119.7L132.6,189.7C129.7,192.4 125.4,192.4 122.6,189.5L52.6,119.5C49.9,116.6 49.9,112.3 52.8,109.5L123,39.3C125.9,36.8 130.4,36.8 133,39.7L202.6,109.3C205.5,112.1 205.5,116.8 202.6,119.7Z" style="fill-rule:nonzero;"/>
        <path d="M381.6,146.3L310,39.2L281.9,39.2L281.9,192.1L308.1,192.1L308.1,79.9L383.9,192.1L407.8,192.1L407.8,39.2L381.6,39.2L381.6,146.3Z" style="fill-rule:nonzero;"/>
        <path d="M522.1,95.2C517.1,89.7 511.3,85.4 504.5,82.5C497.8,79.6 490.4,78.1 482.5,78.1C474.5,78.1 467.2,79.6 460.5,82.5C453.8,85.4 447.9,89.6 442.9,95.2C438.2,100.3 434.7,106.4 432.2,113.4C429.8,120.4 428.6,128.1 428.6,136.3C428.6,144.5 429.8,152.2 432.2,159.2C434.6,166.2 438.2,172.3 442.9,177.4C447.9,182.9 453.7,187.2 460.5,190.1C467.2,193 474.6,194.5 482.5,194.5C490.5,194.5 497.8,193 504.5,190.1C511.2,187.2 517.1,183 522.1,177.4C526.8,172.3 530.3,166.2 532.7,159.2C535.1,152.2 536.3,144.5 536.3,136.3C536.3,128.1 535.1,120.4 532.7,113.4C530.4,106.4 526.8,100.3 522.1,95.2ZM503.1,163.2C498.1,169.7 491.2,173 482.5,173C473.8,173 467,169.7 461.9,163.2C456.9,156.7 454.3,147.7 454.3,136.4C454.3,125 456.8,116.1 461.9,109.6C466.9,103.1 473.8,99.8 482.5,99.8C491.2,99.8 498,103.1 503.1,109.6C508.1,116.1 510.7,125.1 510.7,136.4C510.6,147.7 508.1,156.6 503.1,163.2Z" style="fill-rule:nonzero;"/>
        <rect x="556.2" y="80.3" width="25.6" height="111.8"/>
        <rect x="555.8" y="39.2" width="26.4" height="26.2"/>
        <path d="M668.2,79.8C667.1,79.7 665.9,79.7 664.8,79.7C657.8,79.7 651.6,81.3 646.2,84.4C640.7,87.5 636.7,91.7 634.2,97L634.2,80.3L608.6,80.3L608.6,192.1L634.2,192.1L634.2,133.3C634.2,124.8 636.8,117.9 642.1,112.7C647.4,107.5 654.2,104.9 662.8,104.9C664.5,104.9 666.1,104.9 667.5,105C668.9,105.1 670.5,105.2 672.2,105.5L672.2,80.1C670.7,80 669.4,79.9 668.2,79.8Z" style="fill-rule:nonzero;"/>
    </g>
</svg>
