<svg width="150" height="150" viewBox="0 0 150 150" fill="none" xmlns="http://www.w3.org/2000/svg">
<mask id="mask0_1865_10392" style="mask-type:luminance" maskUnits="userSpaceOnUse" x="0" y="0" width="150" height="150">
<path d="M150 0H0V150H150V0Z" fill="white"/>
</mask>
<g mask="url(#mask0_1865_10392)">
<path d="M75 150C64.8769 150 55.0554 148.016 45.8054 144.105C36.8729 140.327 28.8559 134.919 21.9661 128.034C15.0815 121.149 9.67332 113.127 5.89501 104.195C1.98441 94.9446 0 85.1231 0 75C0 64.8769 1.98441 55.0554 5.89501 45.8054C9.67332 36.8729 15.0815 28.8559 21.9661 21.9661C28.8506 15.0815 36.8729 9.67332 45.8054 5.89501C55.0554 1.98441 64.8769 0 75 0C85.1231 0 94.9446 1.98441 104.195 5.89501C113.127 9.67332 121.144 15.0815 128.034 21.9661C134.919 28.8506 140.327 36.8729 144.105 45.8054C148.016 55.0554 150 64.8769 150 75C150 85.1231 148.016 94.9446 144.105 104.195C140.327 113.127 134.919 121.144 128.034 128.034C121.149 134.919 113.127 140.327 104.195 144.105C94.9446 148.016 85.1231 150 75 150Z" fill="white"/>
<path d="M74.9986 146.026C114.225 146.026 146.024 114.227 146.024 75C146.024 35.7735 114.225 3.97412 74.9986 3.97412C35.772 3.97412 3.97266 35.7735 3.97266 75C3.97266 114.227 35.772 146.026 74.9986 146.026Z" fill="black"/>
<path d="M124.297 51.3353H110.703C109.775 48.3511 108.135 45.6377 105.924 43.4294C103.675 41.1804 100.966 39.5506 98.0182 38.6404V25.0564H88.3608V38.217C84.9348 38.9596 81.7963 40.6758 79.3225 43.1595L72.8877 49.5943C71.0038 51.4782 71.0038 54.5368 72.8877 56.4259C74.7716 58.3098 77.8302 58.3098 79.7193 56.4259L86.1541 49.9912C87.8263 48.319 90.0859 47.4194 92.5042 47.4458C94.9755 47.4776 97.3144 48.4777 99.0977 50.2611C102.738 53.9018 102.86 59.7121 99.3676 63.2047L85.8366 76.7357C82.3441 80.2282 76.5337 80.1065 72.893 76.4658C71.0091 74.582 67.9505 74.582 66.0613 76.4658C64.1775 78.3497 64.1775 81.4083 66.0613 83.2975C69.8132 87.0493 74.7292 88.9332 79.6135 88.9332C84.3655 88.9332 89.0857 87.1499 92.6683 83.5673L106.199 70.0363C108.766 67.4698 110.401 64.3212 111.131 60.998H124.308V51.3406L124.297 51.3353Z" fill="white"/>
<path d="M69.5244 93.0502L63.0896 99.4849C59.5971 102.978 53.792 102.856 50.146 99.2151C46.5053 95.5743 46.3836 89.764 49.8761 86.2714L63.4072 72.7404C66.8997 69.2479 72.7101 69.3696 76.3508 73.0103C78.2346 74.8942 81.2933 74.8942 83.1824 73.0103C85.0663 71.1264 85.0663 68.0678 83.1824 66.1787C75.774 58.7702 63.8411 58.6485 56.5808 65.9088L43.0498 79.4398C40.4833 82.0063 38.8481 85.1549 38.1179 88.4781H24.9414V98.1355H38.5359C39.4633 101.12 41.1033 103.833 43.3144 106.041C45.6057 108.333 48.331 109.926 51.2202 110.82V124.42H60.8777V111.243C64.2062 110.518 67.3548 108.878 69.916 106.311L76.3508 99.8765C78.2346 97.9927 78.2346 94.934 76.3508 93.0449C74.4669 91.161 71.4083 91.161 69.5191 93.0449L69.5244 93.0502Z" fill="white"/>
</g>
</svg>
