<svg width="281" height="281" viewBox="0 0 281 281" fill="none" xmlns="http://www.w3.org/2000/svg">
<g clip-path="url(#clip0_946_7803)">
<path d="M140.5 281C218.096 281 281 218.096 281 140.5C281 62.904 218.096 0 140.5 0C62.904 0 0 62.904 0 140.5C0 218.096 62.904 281 140.5 281Z" fill="#FF0420"/>
<path d="M99.5303 177.817C91.1565 177.817 84.3001 175.85 78.9611 171.916C73.6783 167.926 71.0369 162.193 71.0369 154.831C71.0369 153.257 71.2055 151.403 71.5427 149.155C72.4419 144.097 73.7345 138.027 75.4205 130.89C80.1975 111.557 92.5615 101.891 112.456 101.891C117.851 101.891 122.741 102.79 127.012 104.644C131.283 106.387 134.655 109.084 137.128 112.681C139.601 116.222 140.837 120.437 140.837 125.326C140.837 126.787 140.669 128.642 140.331 130.89C139.264 137.128 138.027 143.254 136.51 149.155C134.037 158.765 129.822 166.015 123.752 170.792C117.739 175.513 109.646 177.817 99.5303 177.817ZM101.048 162.643C104.982 162.643 108.297 161.463 111.051 159.158C113.861 156.854 115.884 153.314 117.065 148.48C118.694 141.849 119.931 136.116 120.774 131.171C121.055 129.71 121.223 128.192 121.223 126.619C121.223 120.212 117.908 117.008 111.22 117.008C107.286 117.008 103.914 118.189 101.104 120.493C98.3501 122.797 96.3831 126.338 95.2029 131.171C93.9103 135.892 92.6739 141.624 91.3813 148.48C91.1003 149.885 90.9317 151.347 90.9317 152.92C90.8755 159.439 94.3037 162.643 101.048 162.643Z" fill="white"/>
<path d="M145.727 176.805C144.94 176.805 144.378 176.58 143.928 176.074C143.591 175.512 143.479 174.894 143.591 174.163L158.147 105.599C158.259 104.813 158.653 104.194 159.327 103.689C159.945 103.183 160.62 102.958 161.35 102.958H189.394C197.206 102.958 203.444 104.588 208.165 107.791C212.942 111.051 215.358 115.715 215.358 121.841C215.358 123.583 215.134 125.438 214.74 127.349C212.998 135.442 209.457 141.399 204.062 145.277C198.779 149.154 191.53 151.065 182.313 151.065H168.094L163.261 174.163C163.092 174.95 162.755 175.568 162.081 176.074C161.463 176.58 160.788 176.805 160.058 176.805H145.727ZM183.043 136.509C186.022 136.509 188.551 135.723 190.743 134.093C192.991 132.463 194.452 130.159 195.183 127.124C195.407 125.944 195.52 124.876 195.52 123.977C195.52 121.954 194.902 120.38 193.721 119.312C192.541 118.188 190.462 117.626 187.596 117.626H174.951L170.96 136.509H183.043Z" fill="white"/>
</g>
<defs>
<clipPath id="clip0_946_7803">
<rect width="281" height="281" fill="white"/>
</clipPath>
</defs>
</svg>
